<!-- Generated by IcoMoon.io -->
<svg version="1.1" xmlns="http://www.w3.org/2000/svg" width="512" height="512" viewBox="0 0 512 512">
<title></title>
<g id="icomoon-ignore">
</g>
<path d="M320 73.294v67.979c18.103 7.902 34.75 19.204 49.137 33.59 30.221 30.22 46.863 70.4 46.863 113.137s-16.643 82.917-46.863 113.137c-30.22 30.22-70.399 46.863-113.137 46.863s-82.917-16.643-113.137-46.863c-30.22-30.22-46.863-70.4-46.863-113.137s16.643-82.917 46.863-113.137c14.387-14.387 31.034-25.689 49.137-33.591v-67.978c-92.524 27.54-160 113.236-160 214.706 0 123.712 100.289 224 224 224s224-100.288 224-224c0-101.47-67.475-187.166-160-214.706zM224 0h64v256h-64z"></path>
</svg>
